<svg width="650" height="618" viewBox="0 0 650 618" fill="none" xmlns="http://www.w3.org/2000/svg">
<path opacity="0.05" d="M-104.912 567.869C-48.9433 528.185 -27.7814 475.86 -41.4263 410.896C-61.8936 313.449 -39.503 251.242 22.1875 246.178C83.878 241.115 142.096 311.765 157.681 396.334C173.266 480.903 259.957 483.243 294.34 466.488C328.724 449.733 348.462 415.948 347.073 379.129C344.001 297.7 232.327 232.819 234.94 157.746C237.553 82.6743 329.376 55.1036 386.979 122.715C389.817 126.046 392.708 129.181 395.644 132.126C454.674 191.34 532.026 173.844 567.396 129.923C628.731 53.7617 600.761 -27.6337 502.35 -82.8623C354.196 -169.904 275.342 -265.311 265.789 -369.083" stroke="url(#paint0_linear_2_82)" stroke-width="100" stroke-linecap="round"/>
<defs>
<linearGradient id="paint0_linear_2_82" x1="-104.912" y1="567.869" x2="583.432" y2="-364.791" gradientUnits="userSpaceOnUse">
<stop stop-color="#4E7577"/>
<stop offset="1" stop-color="#65D5FC"/>
<stop offset="1" stop-color="#23445B"/>
</linearGradient>
</defs>
</svg>
