<svg width="69" height="19" viewBox="0 0 69 19" fill="none" xmlns="http://www.w3.org/2000/svg">
<path d="M5.32727 17.9166V4.02562H0.441469V1.15162H13.3745V4.02562H8.48867V17.9166H5.32727ZM18.4189 18.1082C17.4929 18.1082 16.6786 17.9007 15.976 17.4855C15.2895 17.0544 14.7546 16.4637 14.3714 15.7132C13.9882 14.9628 13.7966 14.1006 13.7966 13.1266V6.03743H16.8143V12.8871C16.8143 13.7813 17.0298 14.4519 17.4609 14.8989C17.908 15.346 18.5387 15.5695 19.353 15.5695C20.2791 15.5695 20.9976 15.2662 21.5085 14.6594C22.0194 14.0367 22.2749 13.1745 22.2749 12.0728V6.03743H25.2926V17.9166H22.3228V16.3599H21.8917C21.7001 16.759 21.3408 17.1502 20.8139 17.5334C20.287 17.9166 19.4887 18.1082 18.4189 18.1082ZM28.6506 17.9166V6.03743H31.6204V7.37862H32.0515C32.2272 6.89962 32.5146 6.54836 32.9137 6.32482C33.3289 6.10129 33.8079 5.98952 34.3507 5.98952H35.7877V8.67193H34.3028C33.5364 8.67193 32.9058 8.87949 32.4108 9.29463C31.9158 9.69379 31.6683 10.3165 31.6683 11.1627V17.9166H28.6506ZM38.1464 17.9166V6.03743H41.1641V17.9166H38.1464ZM39.6553 4.64833C39.1124 4.64833 38.6494 4.47269 38.2662 4.12142C37.899 3.77016 37.7153 3.30712 37.7153 2.73233C37.7153 2.15753 37.899 1.69449 38.2662 1.34322C38.6494 0.991958 39.1124 0.816324 39.6553 0.816324C40.2141 0.816324 40.6772 0.991958 41.0444 1.34322C41.4116 1.69449 41.5952 2.15753 41.5952 2.73233C41.5952 3.30712 41.4116 3.77016 41.0444 4.12142C40.6772 4.47269 40.2141 4.64833 39.6553 4.64833ZM50.0885 18.2519C48.9389 18.2519 47.8931 18.0124 46.9511 17.5334C46.025 17.0544 45.2905 16.3599 44.7477 15.4498C44.2048 14.5397 43.9334 13.438 43.9334 12.1447V11.8094C43.9334 10.5161 44.2048 9.41438 44.7477 8.50428C45.2905 7.59418 46.025 6.89963 46.9511 6.42063C47.8931 5.94162 48.9389 5.70212 50.0885 5.70212C51.2221 5.70212 52.1961 5.90171 53.0104 6.30088C53.8247 6.70004 54.4793 7.25089 54.9743 7.95343C55.4852 8.63999 55.8205 9.42236 55.9802 10.3005L53.0583 10.9232C52.9944 10.4442 52.8507 10.0131 52.6272 9.62993C52.4037 9.24673 52.0843 8.94336 51.6692 8.71983C51.27 8.49629 50.7671 8.38452 50.1604 8.38452C49.5536 8.38452 49.0028 8.52024 48.5078 8.79168C48.0288 9.04714 47.6456 9.43833 47.3582 9.96523C47.0868 10.4762 46.9511 11.1068 46.9511 11.8573V12.0968C46.9511 12.8472 47.0868 13.4859 47.3582 14.0128C47.6456 14.5237 48.0288 14.9149 48.5078 15.1863C49.0028 15.4418 49.5536 15.5695 50.1604 15.5695C51.0705 15.5695 51.757 15.338 52.2201 14.875C52.6991 14.396 53.0024 13.7733 53.1302 13.0069L56.0521 13.7014C55.8445 14.5477 55.4852 15.322 54.9743 16.0246C54.4793 16.7111 53.8247 17.254 53.0104 17.6532C52.1961 18.0523 51.2221 18.2519 50.0885 18.2519ZM63.4751 18.2519C61.9263 18.2519 60.6569 17.9166 59.667 17.246C58.6771 16.5754 58.0783 15.6174 57.8708 14.372L60.649 13.6535C60.7607 14.2124 60.9443 14.6514 61.1998 14.9708C61.4712 15.2901 61.7986 15.5216 62.1818 15.6653C62.5809 15.7931 63.012 15.8569 63.4751 15.8569C64.1776 15.8569 64.6965 15.7372 65.0318 15.4977C65.3671 15.2422 65.5348 14.9309 65.5348 14.5636C65.5348 14.1964 65.3751 13.917 65.0558 13.7254C64.7364 13.5178 64.2255 13.3502 63.523 13.2224L62.8524 13.1027C62.0221 12.943 61.2637 12.7275 60.5771 12.456C59.8905 12.1686 59.3397 11.7774 58.9246 11.2825C58.5094 10.7875 58.3019 10.1488 58.3019 9.36648C58.3019 8.18494 58.733 7.28283 59.5952 6.66012C60.4574 6.02146 61.591 5.70212 62.9961 5.70212C64.3213 5.70212 65.423 5.99751 66.3012 6.58828C67.1793 7.17904 67.7541 7.95343 68.0256 8.91143L65.2234 9.77363C65.0957 9.16689 64.8322 8.73579 64.4331 8.48033C64.0499 8.22486 63.5709 8.09713 62.9961 8.09713C62.4213 8.09713 61.9822 8.20091 61.6788 8.40848C61.3754 8.60008 61.2238 8.87151 61.2238 9.22278C61.2238 9.60598 61.3834 9.89338 61.7028 10.085C62.0221 10.2606 62.4532 10.3963 62.9961 10.4921L63.6667 10.6119C64.5608 10.7715 65.3671 10.9871 66.0856 11.2585C66.8201 11.514 67.3949 11.8892 67.81 12.3842C68.2411 12.8632 68.4567 13.5178 68.4567 14.3481C68.4567 15.5935 68.0016 16.5595 67.0915 17.246C66.1974 17.9166 64.9919 18.2519 63.4751 18.2519Z" fill="url(#paint0_linear_2_78)"/>
<defs>
<linearGradient id="paint0_linear_2_78" x1="-3.05" y1="-0.0833692" x2="72.8423" y2="13.0015" gradientUnits="userSpaceOnUse">
<stop stop-color="#496F74"/>
<stop offset="0.370774" stop-color="#6E9195"/>
<stop offset="0.832516" stop-color="#2D4F61"/>
</linearGradient>
</defs>
</svg>
